<svg width="60" height="60" viewBox="0 0 60 60" fill="none" xmlns="http://www.w3.org/2000/svg">
<path d="M50.856 6.666C50.476 6.242 49.934 6 49.366 6H10.634C10.066 6 9.52404 6.242 9.14404 6.666C8.76404 7.09 8.58404 7.656 8.64604 8.22L13.05 47.866C13.138 48.672 13.708 49.346 14.488 49.568L29.448 53.842C29.628 53.894 29.814 53.92 29.998 53.92C30.182 53.92 30.368 53.894 30.548 53.842L45.508 49.568C46.288 49.346 46.856 48.672 46.946 47.866L51.352 8.22C51.416 7.656 51.236 7.09 50.856 6.666ZM41.258 20.86H23.398L23.822 25.944H40.828L39.552 40.964L30.006 44L29.912 43.97L20.472 40.96L19.956 34.84H24.58L24.782 37.218L30.056 38.38L35.238 37.216L35.788 30.79H19.608L18.356 16H41.674L41.258 20.86Z" fill="#DF2BF1"/>
</svg>
