<svg width="60" height="60" viewBox="0 0 60 60" fill="none" xmlns="http://www.w3.org/2000/svg">
<path d="M29.989 5.625C29.3046 5.625 28.6204 5.79287 28.0298 6.13037L9.44824 16.8567C8.24824 17.5504 7.5 18.864 7.5 20.2515V39.7119C7.5 41.1182 8.24824 42.413 9.44824 43.1067L14.3262 45.9192C16.6887 47.0817 17.5311 47.0801 18.5998 47.0801C22.1061 47.0801 24.1113 44.9616 24.1113 41.2866V21.2073C24.1113 20.9073 23.8693 20.6616 23.5693 20.6616H21.2256C20.9068 20.6616 20.6799 20.9073 20.6799 21.2073V41.2683C20.6799 42.9183 18.9757 44.5304 16.2195 43.1617L11.1182 40.2173C10.9307 40.1236 10.8179 39.9182 10.8179 39.712V20.2698C10.8179 20.0448 10.9307 19.855 11.1182 19.7425L29.6997 9.01982C29.8685 8.90732 30.0945 8.90732 30.282 9.01982L48.8636 19.7425C49.0511 19.855 49.1639 20.0453 49.1639 20.2515V39.712C49.1639 39.9182 49.0506 40.1236 48.8819 40.2173L30.282 50.962C30.1133 51.0557 29.8685 51.0557 29.6997 50.962L24.917 48.1311C24.7858 48.0374 24.6015 48.0195 24.4703 48.0945C23.139 48.8445 22.8953 48.9377 21.6578 49.3689C21.3578 49.4627 20.8887 49.6496 21.8262 50.1746L28.0298 53.8514C28.6298 54.1889 29.3067 54.3751 29.9817 54.3751C30.6755 54.3751 31.3483 54.1889 31.9483 53.8514L50.5518 43.1067C51.7518 42.413 52.5 41.1182 52.5 39.712V20.2698C52.5 18.8636 51.7518 17.5688 50.5518 16.875L31.9483 6.13041C31.3576 5.79291 30.6734 5.625 29.989 5.625ZM34.9878 20.636C29.6816 20.636 26.5137 22.8845 26.5137 26.6345C26.5137 30.7033 29.6608 31.8265 34.7608 32.3328C40.8545 32.9328 41.3233 33.8354 41.3233 35.0354C41.3233 37.0979 39.6573 37.9797 35.7385 37.9797C30.8073 37.9797 29.7191 36.7405 29.3628 34.303C29.3253 34.0405 29.1016 33.8525 28.8391 33.8525H26.4185C26.1185 33.8525 25.8948 34.0986 25.8948 34.3799C25.8948 37.5111 27.601 41.239 35.7385 41.239C41.626 41.239 45 38.9169 45 34.8669C45 30.8544 42.2808 29.7836 36.5808 29.0149C30.7871 28.2649 30.2051 27.871 30.2051 26.521C30.2051 25.396 30.7128 23.9172 34.9878 23.9172C38.7941 23.9172 40.2183 24.7396 40.7996 27.3083C40.8558 27.5521 41.0608 27.7405 41.3233 27.7405H43.7439C43.8939 27.7405 44.0233 27.6662 44.1358 27.5537C44.2295 27.46 44.2863 27.3086 44.2676 27.1399C43.8926 22.7149 40.9503 20.636 34.9878 20.636Z" fill="#DF2BF1"/>
</svg>
