<svg width="60" height="60" viewBox="0 0 60 60" fill="none" xmlns="http://www.w3.org/2000/svg">
<path fill-rule="evenodd" clip-rule="evenodd" d="M41.4657 4.78124C40.53 4.74978 39.5507 4.91291 38.5688 5.23124C36.6049 5.86793 34.5471 7.10865 32.4352 8.82655C31.6075 9.4998 30.7724 10.2694 29.9344 11.0859C29.1149 10.2901 28.2969 9.54119 27.4875 8.88279C25.3773 7.16628 23.325 5.92506 21.3657 5.28983C19.4063 4.65459 17.4567 4.6349 15.8555 5.55936C14.2543 6.48381 13.2968 8.18081 12.8672 10.1953C12.4377 12.2098 12.485 14.6088 12.9164 17.2945C13.0663 18.2274 13.28 19.2061 13.5235 20.2031C12.6085 20.4804 11.72 20.7719 10.8961 21.0937C8.40961 22.0649 6.35217 23.2268 4.85393 24.6094C3.3557 25.9919 2.38831 27.67 2.38831 29.5125C2.38831 31.355 3.3557 33.0307 4.85393 34.4133C6.35216 35.7959 8.40961 36.9601 10.8961 37.9312C11.7771 38.2753 12.731 38.5852 13.7157 38.8781C13.3615 40.2015 13.0745 41.4857 12.8789 42.7031C12.4471 45.391 12.4015 47.7903 12.8321 49.8094C13.2626 51.8284 14.2206 53.535 15.8297 54.464C17.4388 55.3931 19.3972 55.3703 21.361 54.7336C23.3248 54.0969 25.3803 52.8585 27.4922 51.1406C28.3123 50.4736 29.1418 49.7126 29.9719 48.9047C30.8064 49.7175 31.6393 50.482 32.4633 51.1523C34.5735 52.8689 36.6282 54.1077 38.5876 54.743C40.5469 55.3782 42.4965 55.3979 44.0977 54.4734C45.6989 53.549 46.6541 51.852 47.0837 49.8375C47.5132 47.823 47.4659 45.4264 47.0344 42.7406C46.8383 41.52 46.5512 40.2315 46.1954 38.9039C47.2126 38.6038 48.1965 38.2857 49.104 37.9312C51.5905 36.9601 53.6479 35.7959 55.1462 34.4133C56.6444 33.0307 57.6118 31.355 57.6118 29.5125C57.6118 27.67 56.6444 25.9919 55.1462 24.6094C53.6479 23.2268 51.5905 22.0649 49.104 21.0937C48.2682 20.7673 47.3661 20.472 46.4368 20.1914C46.6822 19.1883 46.9001 18.2026 47.0508 17.2641C47.4826 14.5762 47.5282 12.1745 47.0977 10.1555C46.6672 8.13641 45.7068 6.43214 44.0977 5.50313C43.2931 5.03862 42.4013 4.81269 41.4657 4.78124ZM41.3555 7.22342C41.9426 7.23948 42.4435 7.37919 42.8719 7.62655C43.7288 8.12126 44.3621 9.08409 44.7 10.6687C45.0379 12.2534 45.0262 14.3944 44.6274 16.8773C44.4908 17.7275 44.2925 18.6284 44.0672 19.5516C41.6126 18.9608 38.9229 18.5225 36.0563 18.2648C34.6172 16.2712 33.1385 14.4549 31.6477 12.8437C32.4362 12.074 33.2197 11.3541 33.9844 10.732C35.9352 9.1451 37.7822 8.06531 39.3235 7.56561C40.0941 7.31576 40.7684 7.20737 41.3555 7.22342ZM18.5836 7.23045C19.1741 7.21397 19.8498 7.32207 20.6227 7.57265C22.1684 8.07378 24.0186 9.15311 25.9711 10.7414C26.7205 11.351 27.4864 12.0572 28.2586 12.8086C26.7568 14.433 25.2659 16.265 23.8172 18.2766C20.9627 18.5389 18.284 18.9796 15.8414 19.5727C15.6178 18.6546 15.4195 17.7583 15.2836 16.9125C14.8844 14.4274 14.8744 12.2861 15.2133 10.6969C15.5522 9.10766 16.1907 8.13756 17.0555 7.63827C17.4879 7.38864 17.9931 7.24693 18.5836 7.23045ZM29.9719 14.5711C30.9494 15.6349 31.9272 16.799 32.8969 18.0515C31.9441 18.0118 30.9796 17.9883 30 17.9883C29.001 17.9883 28.0181 18.0126 27.0469 18.0539C28.0168 16.8003 28.9941 15.6357 29.9719 14.5711ZM30 20.4117C31.6319 20.4117 33.2224 20.4788 34.7696 20.5922C35.8341 22.1212 36.8744 23.7433 37.8656 25.4601C38.7366 26.9687 39.5248 28.475 40.2422 29.9625C39.5172 31.4697 38.7158 32.9963 37.8328 34.5258C37.0556 35.8721 36.2439 37.1507 35.4188 38.3836C33.6712 38.5296 31.8604 38.6109 30 38.6109C28.0949 38.6109 26.2434 38.5248 24.4571 38.3718C23.6457 37.1567 22.8477 35.8974 22.0828 34.5726C21.2018 33.0467 20.4043 31.5229 19.6805 30.0187C20.4074 28.5061 21.2085 26.9738 22.0946 25.439C23.0806 23.7311 24.1179 22.1184 25.1766 20.5968C26.7404 20.4809 28.3494 20.4117 30 20.4117ZM37.8586 20.8922C39.8368 21.139 41.6941 21.4817 43.4227 21.893C42.9098 23.5743 42.278 25.3306 41.5125 27.143C41.0155 26.1848 40.5007 25.2235 39.9446 24.2601C39.2705 23.0927 38.5685 21.9797 37.8586 20.8922ZM22.0125 20.9109C21.3176 21.9781 20.6338 23.0695 19.9735 24.2133C19.4101 25.189 18.8847 26.1633 18.3821 27.1336C17.6232 25.3321 16.9952 23.5858 16.486 21.914C18.2016 21.502 20.0481 21.1606 22.0125 20.9109ZM45.7969 22.5305C46.6475 22.7878 47.4691 23.0564 48.2227 23.3508C50.5148 24.246 52.328 25.3062 53.5031 26.3906C54.6783 27.475 55.1883 28.5092 55.1883 29.5125C55.1883 30.5157 54.6783 31.5499 53.5031 32.6343C52.328 33.7188 50.5148 34.7789 48.2227 35.6742C47.3852 36.0013 46.4652 36.2979 45.5086 36.5789C44.8263 34.4683 43.9553 32.2665 42.9188 30.0187C44.1106 27.4381 45.0733 24.9219 45.7969 22.5305ZM14.1633 22.5422C14.8786 24.9098 15.829 27.4009 17.0039 29.9555C15.9606 32.2163 15.0853 34.4307 14.4 36.5531C13.4772 36.2795 12.5883 35.9909 11.7774 35.6742C9.48518 34.7789 7.67204 33.7188 6.49689 32.6344C5.32174 31.5499 4.81173 30.5158 4.81173 29.5125C4.81173 28.5092 5.32174 27.4751 6.49689 26.3906C7.67204 25.3062 9.48518 24.2461 11.7774 23.3508C12.5193 23.061 13.3271 22.7962 14.1633 22.5422ZM30 24C26.7005 24 24 26.7005 24 30C24 33.2995 26.7005 36 30 36C33.2995 36 36 33.2995 36 30C36 26.7005 33.2995 24 30 24ZM18.4102 32.8383C18.915 33.8134 19.4401 34.7919 20.0063 35.7726C20.4493 36.5399 20.9017 37.2869 21.361 38.0203C19.7494 37.7968 18.2175 37.5139 16.7789 37.1789C17.2364 35.7778 17.7837 34.3233 18.4102 32.8383ZM41.543 32.8383C42.172 34.3268 42.7196 35.7836 43.1789 37.1883C41.7358 37.5229 40.1992 37.8048 38.5828 38.0273C39.0481 37.2849 39.5076 36.5287 39.9563 35.7515C40.5183 34.778 41.0413 33.8063 41.543 32.8383ZM16.0875 39.5086C18.2593 40.0231 20.6133 40.4183 23.1094 40.6758C24.7757 43.0858 26.5116 45.2514 28.2586 47.1445C27.4774 47.9062 26.7031 48.6211 25.9453 49.2375C23.9945 50.8244 22.1452 51.9019 20.6039 52.4016C19.0626 52.9013 17.9124 52.8353 17.0555 52.3406C16.1986 51.8459 15.5676 50.8831 15.2297 49.2984C14.8918 47.7138 14.9012 45.5751 15.3 43.0922C15.481 41.9658 15.7514 40.7596 16.0875 39.5086ZM43.8727 39.518C44.2116 40.7766 44.4828 41.9872 44.6649 43.1203C45.0641 45.6054 45.0741 47.7467 44.7352 49.3359C44.3963 50.9251 43.7625 51.8976 42.8977 52.3969C42.0329 52.8961 40.8715 52.9613 39.3258 52.4601C37.7801 51.959 35.9299 50.8797 33.9774 49.2914C33.2142 48.6706 32.4345 47.9499 31.6477 47.182C33.4064 45.2815 35.1546 43.1049 36.8321 40.6805C39.3345 40.4247 41.695 40.0318 43.8727 39.518ZM26.2406 40.9219C27.4728 40.989 28.7211 41.0344 30 41.0344C31.2366 41.0344 32.4445 40.9917 33.6375 40.9289C32.418 42.5743 31.1749 44.0702 29.9367 45.4172C28.6994 44.0673 27.4586 42.5687 26.2406 40.9219Z" fill="#DF2BF1"/>
</svg>
