<svg width="24" height="24" viewBox="0 0 24 24" fill="none" xmlns="http://www.w3.org/2000/svg">
<path d="M21.6 0.266663H2.4C1.22133 0.266663 0.266663 1.22133 0.266663 2.4V21.6C0.266663 22.7787 1.22133 23.7333 2.4 23.7333H21.6C22.7787 23.7333 23.7333 22.7787 23.7333 21.6V2.4C23.7333 1.22133 22.7787 0.266663 21.6 0.266663ZM7.68426 19.4667H4.53759V9.34186H7.68426V19.4667ZM6.07893 7.89439C5.06453 7.89439 4.24426 7.07199 4.24426 6.05973C4.24426 5.04746 5.06559 4.22613 6.07893 4.22613C7.09013 4.22613 7.91253 5.04853 7.91253 6.05973C7.91253 7.07199 7.09013 7.89439 6.07893 7.89439ZM19.4709 19.4667H16.3264V14.5429C16.3264 13.3685 16.3051 11.8581 14.6912 11.8581C13.0539 11.8581 12.8021 13.1371 12.8021 14.4576V19.4667H9.65759V9.34186H12.6763V10.7253H12.7189C13.1392 9.92959 14.1653 9.09013 15.696 9.09013C18.8821 9.09013 19.4709 11.1872 19.4709 13.9136V19.4667Z" fill="white"/>
</svg>
