<svg width="27" height="27" viewBox="0 0 27 27" fill="none" xmlns="http://www.w3.org/2000/svg">
<path d="M13.3333 0C5.98138 0 0 5.98138 0 13.3333C0 20.6853 5.98138 26.6667 13.3333 26.6667C20.6853 26.6667 26.6667 20.6853 26.6667 13.3333C26.6667 5.98138 20.6853 0 13.3333 0ZM13.3333 2C19.6044 2 24.6667 7.06226 24.6667 13.3333C24.6667 18.4436 21.3046 22.7483 16.6667 24.168V20.7578C16.6667 19.4844 15.9329 18.3924 14.8724 17.8489C16.9644 17.4487 18.6865 16.2655 19.4971 14.6716C20.3076 13.0776 20.107 11.2687 18.9583 9.81379C19.254 8.9036 19.5843 7.30711 18.7995 6.05078C17.2862 6.05078 16.3098 7.08805 15.8437 7.73307C15.0471 7.47135 14.1946 7.3356 13.3333 7.33333C12.4716 7.3341 11.6181 7.46852 10.8203 7.72916C10.3532 7.08384 9.37749 6.05078 7.86719 6.05078C6.96648 7.49254 7.52328 9.04303 7.82162 9.67577C6.59469 11.1251 6.33486 12.9638 7.12638 14.5957C7.91789 16.2276 9.65998 17.4449 11.7878 17.8529C10.917 18.3016 10.2649 19.116 10.0651 20.1042H9.18881C8.32414 20.1042 7.98818 19.7528 7.52084 19.1601C7.05951 18.5675 6.56346 18.1692 5.96746 18.0039C5.64612 17.9699 5.42964 18.2143 5.70964 18.431C6.65564 19.075 6.72094 20.129 7.10027 20.819C7.4456 21.4403 8.15314 22 8.95313 22H10V24.168C5.36205 22.7483 2.00001 18.4436 2.00001 13.3333C2.00001 7.06226 7.06226 2 13.3333 2Z" fill="white"/>
</svg>
